<?xml version="1.0" encoding="UTF-8" standalone="no"?>
<!-- Created with Inkscape (http://www.inkscape.org/) -->

<svg
   xmlns:dc="http://purl.org/dc/elements/1.1/"
   xmlns:cc="http://creativecommons.org/ns#"
   xmlns:rdf="http://www.w3.org/1999/02/22-rdf-syntax-ns#"
   xmlns:svg="http://www.w3.org/2000/svg"
   xmlns="http://www.w3.org/2000/svg"
   xmlns:sodipodi="http://sodipodi.sourceforge.net/DTD/sodipodi-0.dtd"
   xmlns:inkscape="http://www.inkscape.org/namespaces/inkscape"
   width="210mm"
   height="297mm"
   viewBox="0 0 744.09448819 1052.3622047"
   id="svg2"
   version="1.1"
   inkscape:version="0.91 r13725"
   sodipodi:docname="floor.svg">
  <defs
     id="defs4" />
  <sodipodi:namedview
     id="base"
     pagecolor="#ffffff"
     bordercolor="#666666"
     borderopacity="1.0"
     inkscape:pageopacity="0.0"
     inkscape:pageshadow="2"
     inkscape:zoom="1.746547"
     inkscape:cx="322.10357"
     inkscape:cy="346.1452"
     inkscape:document-units="px"
     inkscape:current-layer="layer1"
     showgrid="false"
     inkscape:window-width="1855"
     inkscape:window-height="1056"
     inkscape:window-x="65"
     inkscape:window-y="24"
     inkscape:window-maximized="1" />
  <metadata
     id="metadata7">
    <rdf:RDF>
      <cc:Work
         rdf:about="">
        <dc:format>image/svg+xml</dc:format>
        <dc:type
           rdf:resource="http://purl.org/dc/dcmitype/StillImage" />
        <dc:title></dc:title>
      </cc:Work>
    </rdf:RDF>
  </metadata>
  <g
     inkscape:label="Layer 1"
     inkscape:groupmode="layer"
     id="layer1">
    <rect
       style="fill:#0000ff;fill-rule:evenodd;stroke:#000000;stroke-width:2.5;stroke-linecap:butt;stroke-linejoin:miter;stroke-miterlimit:4;stroke-dasharray:none;stroke-opacity:1"
       id="rect3344"
       width="100"
       height="100"
       x="501.25"
       y="451.11224" />
    <rect
       style="fill:#e600ff;fill-opacity:1;fill-rule:evenodd;stroke:#000000;stroke-width:2.5;stroke-linecap:butt;stroke-linejoin:miter;stroke-miterlimit:4;stroke-dasharray:none;stroke-opacity:1"
       id="rect3344-6"
       width="100"
       height="100"
       x="401.25"
       y="451.11224" />
    <rect
       style="fill:#f800ff;fill-opacity:1;fill-rule:evenodd;stroke:#000000;stroke-width:2.5;stroke-linecap:butt;stroke-linejoin:miter;stroke-miterlimit:4;stroke-dasharray:none;stroke-opacity:1"
       id="rect3344-7"
       width="100"
       height="100"
       x="501.25"
       y="551.11218" />
    <rect
       style="fill:#3900ff;fill-opacity:1;fill-rule:evenodd;stroke:#000000;stroke-width:2.5;stroke-linecap:butt;stroke-linejoin:miter;stroke-miterlimit:4;stroke-dasharray:none;stroke-opacity:1"
       id="rect3344-6-5"
       width="100"
       height="100"
       x="401.25"
       y="551.11218" />
    <rect
       style="fill:#0000ff;fill-rule:evenodd;stroke:#000000;stroke-width:2.5;stroke-linecap:butt;stroke-linejoin:miter;stroke-miterlimit:4;stroke-dasharray:none;stroke-opacity:1"
       id="rect3344-3"
       width="100"
       height="100"
       x="301.25"
       y="451.11224" />
    <rect
       style="fill:#e600ff;fill-opacity:1;fill-rule:evenodd;stroke:#000000;stroke-width:2.5;stroke-linecap:butt;stroke-linejoin:miter;stroke-miterlimit:4;stroke-dasharray:none;stroke-opacity:1"
       id="rect3344-6-56"
       width="100"
       height="100"
       x="201.25"
       y="451.11224" />
    <rect
       style="fill:#f800ff;fill-opacity:1;fill-rule:evenodd;stroke:#000000;stroke-width:2.5;stroke-linecap:butt;stroke-linejoin:miter;stroke-miterlimit:4;stroke-dasharray:none;stroke-opacity:1"
       id="rect3344-7-2"
       width="100"
       height="100"
       x="301.25"
       y="551.11218" />
    <rect
       style="fill:#3900ff;fill-opacity:1;fill-rule:evenodd;stroke:#000000;stroke-width:2.5;stroke-linecap:butt;stroke-linejoin:miter;stroke-miterlimit:4;stroke-dasharray:none;stroke-opacity:1"
       id="rect3344-6-5-9"
       width="100"
       height="100"
       x="201.25"
       y="551.11218" />
    <rect
       style="fill:#e600ff;fill-opacity:1;fill-rule:evenodd;stroke:#000000;stroke-width:2.5;stroke-linecap:butt;stroke-linejoin:miter;stroke-miterlimit:4;stroke-dasharray:none;stroke-opacity:1"
       id="rect3344-6-56-1"
       width="100"
       height="100"
       x="-201.25"
       y="-651.11218"
       transform="scale(-1,-1)" />
    <rect
       style="fill:#3900ff;fill-opacity:1;fill-rule:evenodd;stroke:#000000;stroke-width:2.5;stroke-linecap:butt;stroke-linejoin:miter;stroke-miterlimit:4;stroke-dasharray:none;stroke-opacity:1"
       id="rect3344-6-5-9-2"
       width="100"
       height="100"
       x="-201.25"
       y="-551.11224"
       transform="scale(-1,-1)" />
    <rect
       style="fill:#0000ff;fill-rule:evenodd;stroke:#000000;stroke-width:2.5;stroke-linecap:butt;stroke-linejoin:miter;stroke-miterlimit:4;stroke-dasharray:none;stroke-opacity:1"
       id="rect3344-70"
       width="100"
       height="100"
       x="501.25"
       y="651.11224" />
    <rect
       style="fill:#e600ff;fill-opacity:1;fill-rule:evenodd;stroke:#000000;stroke-width:2.5;stroke-linecap:butt;stroke-linejoin:miter;stroke-miterlimit:4;stroke-dasharray:none;stroke-opacity:1"
       id="rect3344-6-9"
       width="100"
       height="100"
       x="401.25"
       y="651.11224" />
    <rect
       style="fill:#f800ff;fill-opacity:1;fill-rule:evenodd;stroke:#000000;stroke-width:2.5;stroke-linecap:butt;stroke-linejoin:miter;stroke-miterlimit:4;stroke-dasharray:none;stroke-opacity:1"
       id="rect3344-7-3"
       width="100"
       height="100"
       x="501.25"
       y="751.11218" />
    <rect
       style="fill:#3900ff;fill-opacity:1;fill-rule:evenodd;stroke:#000000;stroke-width:2.5;stroke-linecap:butt;stroke-linejoin:miter;stroke-miterlimit:4;stroke-dasharray:none;stroke-opacity:1"
       id="rect3344-6-5-6"
       width="100"
       height="100"
       x="401.25"
       y="751.11218" />
    <rect
       style="fill:#0000ff;fill-rule:evenodd;stroke:#000000;stroke-width:2.5;stroke-linecap:butt;stroke-linejoin:miter;stroke-miterlimit:4;stroke-dasharray:none;stroke-opacity:1"
       id="rect3344-3-0"
       width="100"
       height="100"
       x="301.25"
       y="651.11224" />
    <rect
       style="fill:#e600ff;fill-opacity:1;fill-rule:evenodd;stroke:#000000;stroke-width:2.5;stroke-linecap:butt;stroke-linejoin:miter;stroke-miterlimit:4;stroke-dasharray:none;stroke-opacity:1"
       id="rect3344-6-56-6"
       width="100"
       height="100"
       x="201.25"
       y="651.11224" />
    <rect
       style="fill:#f800ff;fill-opacity:1;fill-rule:evenodd;stroke:#000000;stroke-width:2.5;stroke-linecap:butt;stroke-linejoin:miter;stroke-miterlimit:4;stroke-dasharray:none;stroke-opacity:1"
       id="rect3344-7-2-2"
       width="100"
       height="100"
       x="301.25"
       y="751.11218" />
    <rect
       style="fill:#3900ff;fill-opacity:1;fill-rule:evenodd;stroke:#000000;stroke-width:2.5;stroke-linecap:butt;stroke-linejoin:miter;stroke-miterlimit:4;stroke-dasharray:none;stroke-opacity:1"
       id="rect3344-6-5-9-6"
       width="100"
       height="100"
       x="201.25"
       y="751.11218" />
    <rect
       style="fill:#e600ff;fill-opacity:1;fill-rule:evenodd;stroke:#000000;stroke-width:2.5;stroke-linecap:butt;stroke-linejoin:miter;stroke-miterlimit:4;stroke-dasharray:none;stroke-opacity:1"
       id="rect3344-6-56-1-1"
       width="100"
       height="100"
       x="-201.25"
       y="-851.11218"
       transform="scale(-1,-1)" />
    <rect
       style="fill:#3900ff;fill-opacity:1;fill-rule:evenodd;stroke:#000000;stroke-width:2.5;stroke-linecap:butt;stroke-linejoin:miter;stroke-miterlimit:4;stroke-dasharray:none;stroke-opacity:1"
       id="rect3344-6-5-9-2-8"
       width="100"
       height="100"
       x="-201.25"
       y="-751.11224"
       transform="scale(-1,-1)" />
    <rect
       style="fill:#0000ff;fill-rule:evenodd;stroke:#000000;stroke-width:2.5;stroke-linecap:butt;stroke-linejoin:miter;stroke-miterlimit:4;stroke-dasharray:none;stroke-opacity:1"
       id="rect3344-70-7"
       width="100"
       height="100"
       x="501.25"
       y="851.11218" />
    <rect
       style="fill:#e600ff;fill-opacity:1;fill-rule:evenodd;stroke:#000000;stroke-width:2.5;stroke-linecap:butt;stroke-linejoin:miter;stroke-miterlimit:4;stroke-dasharray:none;stroke-opacity:1"
       id="rect3344-6-9-9"
       width="100"
       height="100"
       x="401.25"
       y="851.11218" />
    <rect
       style="fill:#0000ff;fill-rule:evenodd;stroke:#000000;stroke-width:2.5;stroke-linecap:butt;stroke-linejoin:miter;stroke-miterlimit:4;stroke-dasharray:none;stroke-opacity:1"
       id="rect3344-3-0-2"
       width="100"
       height="100"
       x="301.25"
       y="851.11218" />
    <rect
       style="fill:#e600ff;fill-opacity:1;fill-rule:evenodd;stroke:#000000;stroke-width:2.5;stroke-linecap:butt;stroke-linejoin:miter;stroke-miterlimit:4;stroke-dasharray:none;stroke-opacity:1"
       id="rect3344-6-56-6-0"
       width="100"
       height="100"
       x="201.25"
       y="851.11218" />
    <rect
       style="fill:#3900ff;fill-opacity:1;fill-rule:evenodd;stroke:#000000;stroke-width:2.5;stroke-linecap:butt;stroke-linejoin:miter;stroke-miterlimit:4;stroke-dasharray:none;stroke-opacity:1"
       id="rect3344-6-5-9-2-8-2"
       width="100"
       height="100"
       x="-201.25"
       y="-951.11218"
       transform="scale(-1,-1)" />
    <path
       style="fill:#ff0000;fill-opacity:1;stroke-width:5;stroke-miterlimit:4;stroke-dasharray:none"
       d="m 503.10984,501.28263 0,-48.58318 48.17833,0 48.17832,0 0,48.58318 0,48.58319 -48.17832,0 -48.17833,0 0,-48.58319 z"
       id="path4401"
       inkscape:connector-curvature="0" />
    <path
       style="fill:#ff0000;fill-opacity:1;stroke-width:5;stroke-miterlimit:4;stroke-dasharray:none"
       d="m 503.10984,501.28263 0,-48.58318 48.17833,0 48.17832,0 0,48.58318 0,48.58319 -48.17832,0 -48.17833,0 0,-48.58319 z"
       id="path4403"
       inkscape:connector-curvature="0" />
    <path
       style="fill:#ffff00;fill-opacity:1;stroke-width:5;stroke-miterlimit:4;stroke-dasharray:none"
       d="m 402.70459,501.28263 0,-48.58318 48.58319,0 48.58318,0 0,48.58318 0,48.58319 -48.58318,0 -48.58319,0 0,-48.58319 z"
       id="path4405"
       inkscape:connector-curvature="0" />
    <path
       style="fill:#00ff00;fill-opacity:1;stroke-width:5;stroke-miterlimit:4;stroke-dasharray:none"
       d="m 503.10984,601.28302 0,-48.17832 48.17833,0 48.17832,0 0,48.17832 0,48.17833 -48.17832,0 -48.17833,0 0,-48.17833 z"
       id="path4407"
       inkscape:connector-curvature="0" />
    <path
       style="fill:#00ff00;fill-opacity:1;stroke-width:5;stroke-miterlimit:4;stroke-dasharray:none"
       d="m 303.10906,501.28263 0,-48.58318 48.17833,0 48.17832,0 0,48.58318 0,48.58319 -48.17832,0 -48.17833,0 0,-48.58319 z"
       id="path4409"
       inkscape:connector-curvature="0" />
    <path
       style="fill:#0000ff;fill-opacity:1;stroke-width:5;stroke-miterlimit:4;stroke-dasharray:none"
       d="m 202.70381,501.28263 0,-48.58318 48.58319,0 48.58318,0 0,48.58318 0,48.58319 -48.58318,0 -48.58319,0 0,-48.58319 z"
       id="path4411"
       inkscape:connector-curvature="0" />
    <path
       style="fill:#ff00ff;fill-opacity:1;stroke-width:5;stroke-miterlimit:4;stroke-dasharray:none"
       d="m 103.10828,501.28263 0,-48.58318 48.17833,0 48.17833,0 0,48.58318 0,48.58319 -48.17833,0 -48.17833,0 0,-48.58319 z"
       id="path4413"
       inkscape:connector-curvature="0" />
    <path
       style="fill:#ff0000;fill-opacity:1;stroke-width:5;stroke-miterlimit:4;stroke-dasharray:none"
       d="m 303.10906,601.28302 0,-48.17832 48.17833,0 48.17832,0 0,48.17832 0,48.17833 -48.17832,0 -48.17833,0 0,-48.17833 z"
       id="path4415"
       inkscape:connector-curvature="0" />
    <path
       style="fill:#ff00ff;fill-opacity:1;stroke-width:5;stroke-miterlimit:4;stroke-dasharray:none"
       d="m 303.10906,601.28302 0,-48.17832 48.17833,0 48.17832,0 0,48.17832 0,48.17833 -48.17832,0 -48.17833,0 0,-48.17833 z"
       id="path4417"
       inkscape:connector-curvature="0" />
    <path
       style="fill:#ff0000;fill-opacity:1;stroke-width:5;stroke-miterlimit:4;stroke-dasharray:none"
       d="m 202.70381,600.87816 0,-48.58318 48.58319,0 48.58318,0 0,48.58318 0,48.58319 -48.58318,0 -48.58319,0 0,-48.58319 z"
       id="path4419"
       inkscape:connector-curvature="0" />
    <path
       style="fill:#ffff00;fill-opacity:1;stroke-width:5;stroke-miterlimit:4;stroke-dasharray:none"
       d="m 103.10828,601.28302 0,-48.17832 48.17833,0 48.17833,0 0,48.17832 0,48.17833 -48.17833,0 -48.17833,0 0,-48.17833 z"
       id="path4421"
       inkscape:connector-curvature="0" />
    <path
       style="fill:#00ffff;fill-opacity:1;stroke-width:5;stroke-miterlimit:4;stroke-dasharray:none"
       d="m 103.10828,501.28263 0,-48.58318 48.17833,0 48.17833,0 0,48.58318 0,48.58319 -48.17833,0 -48.17833,0 0,-48.58319 z"
       id="path4423"
       inkscape:connector-curvature="0" />
    <path
       style="fill:#000080;fill-opacity:1;stroke-width:5;stroke-miterlimit:4;stroke-dasharray:none"
       d="m 202.70381,501.28263 0,-48.58318 48.58319,0 48.58318,0 0,48.58318 0,48.58319 -48.58318,0 -48.58319,0 0,-48.58319 z"
       id="path4425"
       inkscape:connector-curvature="0" />
    <path
       style="fill:#008000;fill-opacity:1;stroke-width:5;stroke-miterlimit:4;stroke-dasharray:none"
       d="m 303.10906,501.28263 0,-48.58318 48.17833,0 48.17832,0 0,48.58318 0,48.58319 -48.17832,0 -48.17833,0 0,-48.58319 z"
       id="path4427"
       inkscape:connector-curvature="0" />
    <path
       style="fill:#808000;fill-opacity:1;stroke-width:5;stroke-miterlimit:4;stroke-dasharray:none"
       d="m 402.70459,501.28263 0,-48.58318 48.58319,0 48.58318,0 0,48.58318 0,48.58319 -48.58318,0 -48.58319,0 0,-48.58319 z"
       id="path4429"
       inkscape:connector-curvature="0" />
    <path
       style="fill:#800000;fill-opacity:1;stroke-width:5;stroke-miterlimit:4;stroke-dasharray:none"
       d="m 503.10984,501.28263 0,-48.58318 48.17833,0 48.17832,0 0,48.58318 0,48.58319 -48.17832,0 -48.17833,0 0,-48.58319 z"
       id="path4431"
       inkscape:connector-curvature="0" />
    <path
       style="fill:#008000;fill-opacity:1;stroke-width:5;stroke-miterlimit:4;stroke-dasharray:none"
       d="m 103.10828,501.28263 0,-48.58318 48.17833,0 48.17833,0 0,48.58318 0,48.58319 -48.17833,0 -48.17833,0 0,-48.58319 z"
       id="path4433"
       inkscape:connector-curvature="0" />
    <path
       style="fill:#008080;fill-opacity:1;stroke-width:5;stroke-miterlimit:4;stroke-dasharray:none"
       d="m 103.10828,501.28263 0,-48.58318 48.17833,0 48.17833,0 0,48.58318 0,48.58319 -48.17833,0 -48.17833,0 0,-48.58319 z"
       id="path4435"
       inkscape:connector-curvature="0" />
    <path
       style="fill:#008080;fill-opacity:1;stroke-width:5;stroke-miterlimit:4;stroke-dasharray:none"
       d="m 202.70381,800.87894 0,-48.58318 48.58319,0 48.58318,0 0,48.58318 0,48.58319 -48.58318,0 -48.58319,0 0,-48.58319 z"
       id="path4437"
       inkscape:connector-curvature="0" />
    <path
       style="fill:#ffffff;fill-opacity:1;stroke-width:5;stroke-miterlimit:4;stroke-dasharray:none"
       d="m 100.67271,902.29634 c -0.01,-78.08384 -0.0113,-346.53832 -0.002,-402.02586 l 0.008,-50.00019 250.60826,0 250.60826,0 0,251.01312 0,251.01312 -250.60826,0 -250.60826,0 -0.006,-50.00019 z m 99.60194,-1.41701 0,-48.98805 -48.98804,0 -48.98804,0 0,48.98805 0,48.98804 48.98804,0 48.98804,0 0,-48.98804 z m 100.40525,-0.006 0,-48.99431 -49.19047,0.2087 -49.19048,0.2087 -0.20875,48.78562 -0.20875,48.78561 49.39923,0 49.39922,0 0,-48.99432 z m 99.59553,0.006 0,-48.98805 -48.98804,0 -48.98805,0 0,48.98805 0,48.98804 48.98805,0 48.98804,0 0,-48.98804 z m 100.40525,-0.006 0,-48.99431 -49.19047,0.2087 -49.19048,0.2087 -0.20875,48.78562 -0.20875,48.78561 49.39922,0 49.39923,0 0,-48.99432 z m 99.59553,0.006 0,-48.98805 -48.98804,0 -48.98805,0 0,48.98805 0,48.98804 48.98805,0 48.98804,0 0,-48.98804 z m -400.00156,-99.59553 0,-48.98804 -48.98804,0 -48.98804,0 0,48.98804 0,48.98804 48.98804,0 48.98804,0 0,-48.98804 z m 100.20915,-0.20243 0.20874,-48.78561 -48.99436,0 -48.99437,0 0,48.99436 0,48.99436 48.78562,-0.20874 48.78561,-0.20875 0.20876,-48.78562 z m 99.79163,0.20243 0,-48.98804 -48.98804,0 -48.98805,0 0,48.98804 0,48.98804 48.98805,0 48.98804,0 0,-48.98804 z m 100.20915,-0.20243 0.20874,-48.78561 -48.99436,0 -48.99437,0 0,48.99436 0,48.99436 48.78562,-0.20874 48.78561,-0.20875 0.20876,-48.78562 z m 99.79163,0.20243 0,-48.98804 -48.98804,0 -48.98805,0 0,48.98804 0,48.98804 48.98805,0 48.98804,0 0,-48.98804 z m -400.00156,-100.40525 0,-48.98804 -48.98804,0 -48.98804,0 0,48.98804 0,48.98805 48.98804,0 48.98804,0 0,-48.98805 z m 100.40525,-0.006 0,-48.99431 -49.19047,0.2087 -49.19048,0.2087 -0.20875,48.78562 -0.20875,48.78561 49.39923,0 49.39922,0 0,-48.99432 z m 99.59553,0.006 0,-48.98804 -48.98804,0 -48.98805,0 0,48.98804 0,48.98805 48.98805,0 48.98804,0 0,-48.98805 z m 100.40525,-0.006 0,-48.99431 -49.19047,0.2087 -49.19048,0.2087 -0.20875,48.78562 -0.20875,48.78561 49.39922,0 49.39923,0 0,-48.99432 z m 99.59553,0.006 0,-48.98804 -48.98804,0 -48.98805,0 0,48.98804 0,48.98805 48.98805,0 48.98804,0 0,-48.98805 z m -400.00156,-99.59553 0,-48.98804 -48.98804,0 -48.98804,0 0,48.98804 0,48.98805 48.98804,0 48.98804,0 0,-48.98805 z m 100.20915,-0.20243 0.20874,-48.78561 -48.99436,0 -48.99437,0 0,48.99437 0,48.99436 48.78562,-0.20875 48.78561,-0.20875 0.20876,-48.78562 z m 99.79163,0.20243 0,-48.98804 -48.98804,0 -48.98805,0 0,48.98804 0,48.98805 48.98805,0 48.98804,0 0,-48.98805 z m 100.20915,-0.20243 0.20874,-48.78561 -48.99436,0 -48.99437,0 0,48.99437 0,48.99436 48.78562,-0.20875 48.78561,-0.20875 0.20876,-48.78562 z m 99.79163,0.20243 0,-48.98804 -48.98804,0 -48.98805,0 0,48.98804 0,48.98805 48.98805,0 48.98804,0 0,-48.98805 z m -400.00156,-100.40525 0,-48.98804 -48.98804,0 -48.98804,0 0,48.98804 0,48.98805 48.98804,0 48.98804,0 0,-48.98805 z m 100.40525,-0.006 0,-48.99432 -49.19047,0.20871 -49.19048,0.2087 -0.20875,48.78561 -0.20875,48.78562 49.39923,0 49.39922,0 0,-48.99432 z m 99.59553,0.006 0,-48.98804 -48.98804,0 -48.98805,0 0,48.98804 0,48.98805 48.98805,0 48.98804,0 0,-48.98805 z m 100.40525,-0.006 0,-48.99432 -49.19047,0.20871 -49.19048,0.2087 -0.20875,48.78561 -0.20875,48.78562 49.39922,0 49.39923,0 0,-48.99432 z m 99.59553,0.006 0,-48.98804 -48.98804,0 -48.98805,0 0,48.98804 0,48.98805 48.98805,0 48.98804,0 0,-48.98805 z"
       id="path4439"
       inkscape:connector-curvature="0" />
    <path
       style="fill:#3900ff;fill-opacity:1;stroke-width:5;stroke-miterlimit:4;stroke-dasharray:none"
       d="m 503.10984,501.28263 0,-48.58318 48.17833,0 48.17832,0 0,48.58318 0,48.58319 -48.17832,0 -48.17833,0 0,-48.58319 z"
       id="path4441"
       inkscape:connector-curvature="0" />
    <path
       style="fill:#3900ff;fill-opacity:1;stroke-width:5;stroke-miterlimit:4;stroke-dasharray:none"
       d="m 303.10906,501.28263 0,-48.58318 48.17833,0 48.17832,0 0,48.58318 0,48.58319 -48.17832,0 -48.17833,0 0,-48.58319 z"
       id="path4443"
       inkscape:connector-curvature="0" />
    <path
       style="fill:#3900ff;fill-opacity:1;stroke-width:5;stroke-miterlimit:4;stroke-dasharray:none"
       d="m 103.10828,501.28263 0,-48.58318 48.17833,0 48.17833,0 0,48.58318 0,48.58319 -48.17833,0 -48.17833,0 0,-48.58319 z"
       id="path4445"
       inkscape:connector-curvature="0" />
    <path
       style="fill:#3900ff;fill-opacity:1;stroke-width:5;stroke-miterlimit:4;stroke-dasharray:none"
       d="m 202.70381,600.87816 0,-48.58318 48.58319,0 48.58318,0 0,48.58318 0,48.58319 -48.58318,0 -48.58319,0 0,-48.58319 z"
       id="path4447"
       inkscape:connector-curvature="0" />
    <path
       style="fill:#ff00ff;fill-opacity:1;stroke-width:5;stroke-miterlimit:4;stroke-dasharray:none"
       d="m 202.70381,701.28341 0,-48.58318 48.58319,0 48.58318,0 0,48.58318 0,48.58319 -48.58318,0 -48.58319,0 0,-48.58319 z"
       id="path4449"
       inkscape:connector-curvature="0" />
    <path
       style="fill:#ff00ff;fill-opacity:1;stroke-width:5;stroke-miterlimit:4;stroke-dasharray:none"
       d="m 103.10828,801.2838 0,-48.17833 48.17833,0 48.17833,0 0,48.17833 0,48.17833 -48.17833,0 -48.17833,0 0,-48.17833 z"
       id="path4451"
       inkscape:connector-curvature="0" />
    <path
       style="fill:#ff00ff;fill-opacity:1;stroke-width:5;stroke-miterlimit:4;stroke-dasharray:none"
       d="m 303.10906,801.2838 0,-48.17833 48.17833,0 48.17832,0 0,48.17833 0,48.17833 -48.17832,0 -48.17833,0 0,-48.17833 z"
       id="path4453"
       inkscape:connector-curvature="0" />
    <path
       style="fill:#ff00ff;fill-opacity:1;stroke-width:5;stroke-miterlimit:4;stroke-dasharray:none"
       d="m 202.70381,901.28419 0,-48.58319 48.58319,0 48.58318,0 0,48.58319 0,48.58318 -48.58318,0 -48.58319,0 0,-48.58318 z"
       id="path4455"
       inkscape:connector-curvature="0" />
    <path
       style="fill:#ff00ff;fill-opacity:1;stroke-width:5;stroke-miterlimit:4;stroke-dasharray:none"
       d="m 402.70459,901.28419 0,-48.58319 48.58319,0 48.58318,0 0,48.58319 0,48.58318 -48.58318,0 -48.58319,0 0,-48.58318 z"
       id="path4457"
       inkscape:connector-curvature="0" />
    <path
       style="fill:#ff00ff;fill-opacity:1;stroke-width:5;stroke-miterlimit:4;stroke-dasharray:none"
       d="m 503.10984,801.2838 0,-48.17833 48.17833,0 48.17832,0 0,48.17833 0,48.17833 -48.17832,0 -48.17833,0 0,-48.17833 z"
       id="path4459"
       inkscape:connector-curvature="0" />
    <path
       style="fill:#ff00ff;fill-opacity:1;stroke-width:5;stroke-miterlimit:4;stroke-dasharray:none"
       d="m 402.70459,701.28341 0,-48.58318 48.58319,0 48.58318,0 0,48.58318 0,48.58319 -48.58318,0 -48.58319,0 0,-48.58319 z"
       id="path4461"
       inkscape:connector-curvature="0" />
    <path
       style="fill:#ff00ff;fill-opacity:1;stroke-width:5;stroke-miterlimit:4;stroke-dasharray:none"
       d="m 503.10984,601.28302 0,-48.17832 48.17833,0 48.17832,0 0,48.17832 0,48.17833 -48.17832,0 -48.17833,0 0,-48.17833 z"
       id="path4463"
       inkscape:connector-curvature="0" />
    <path
       style="fill:#ff00ff;fill-opacity:1;stroke-width:5;stroke-miterlimit:4;stroke-dasharray:none"
       d="m 402.70459,501.28263 0,-48.58318 48.58319,0 48.58318,0 0,48.58318 0,48.58319 -48.58318,0 -48.58319,0 0,-48.58319 z"
       id="path4465"
       inkscape:connector-curvature="0" />
    <path
       style="fill:#ff00ff;fill-opacity:1;stroke-width:5;stroke-miterlimit:4;stroke-dasharray:none"
       d="m 202.70381,501.28263 0,-48.58318 48.58319,0 48.58318,0 0,48.58318 0,48.58319 -48.58318,0 -48.58319,0 0,-48.58319 z"
       id="path4467"
       inkscape:connector-curvature="0" />
    <path
       style="fill:#ff00ff;fill-opacity:1;stroke-width:5;stroke-miterlimit:4;stroke-dasharray:none"
       d="m 103.10828,601.28302 0,-48.17832 48.17833,0 48.17833,0 0,48.17832 0,48.17833 -48.17833,0 -48.17833,0 0,-48.17833 z"
       id="path4469"
       inkscape:connector-curvature="0" />
    <path
       style="fill:#3900ff;fill-opacity:1;stroke-width:5;stroke-miterlimit:4;stroke-dasharray:none"
       d="m 202.70381,800.87894 0,-48.58318 48.58319,0 48.58318,0 0,48.58318 0,48.58319 -48.58318,0 -48.58319,0 0,-48.58319 z"
       id="path4471"
       inkscape:connector-curvature="0" />
  </g>
</svg>
